<svg width="155" height="14" viewBox="0 0 155 14" fill="none" xmlns="http://www.w3.org/2000/svg">
<g clip-path="url(#clip0_9_10)">
<path d="M53.109 8.68263C48.3729 9.64075 44.3042 9.24569 44.0222 7.80063C43.7393 6.35688 47.3495 4.41044 52.0852 3.45319C56.8226 2.49638 60.8905 2.89188 61.1733 4.33519C61.4562 5.78069 57.8451 7.72756 53.109 8.68263ZM66.0184 3.73756C65.3355 0.338626 57.731 -0.955061 49.0325 0.847876C40.3332 2.65081 33.8343 6.86613 34.5155 10.2624C35.1975 13.6618 42.802 14.9546 51.5013 13.1534C60.1994 11.3514 66.6995 7.13606 66.0184 3.73756Z" fill="#2263BF"/>
<path d="M113.21 10.0866C110.918 8.89351 111.814 7.37889 112.219 6.83945C115.766 2.12626 129.522 2.62282 129.522 2.62282L130.472 0.837824C130.472 0.837824 117.323 -1.25911 107.959 4.31989C104.715 6.25232 102.417 9.57032 107.579 12.0903C113.89 15.1734 123.942 13.4343 123.942 13.4343L127.046 9.79082C127.046 9.79082 125.829 10.3959 123.995 10.7258C120.779 11.3059 115.936 11.5049 113.21 10.0866Z" fill="#2263BF"/>
<path d="M97.0769 3.55993C95.4869 6.07205 91.63 13.6216 91.63 13.6216H97.9716L104.878 0.429179C104.878 0.429179 99.4092 -0.127321 97.0769 3.55993Z" fill="#2263BF"/>
<path d="M143.198 7.01137C140.714 6.48812 138.044 6.74712 138.044 6.74712C138.044 6.74712 139.333 5.446 140.958 4.7495C142.193 4.21969 143.784 4.24462 144.206 4.26081C144.948 4.28969 145.091 4.77094 145.242 5.07937C145.393 5.38956 146.595 8.386 146.595 8.386C146.595 8.386 145.681 7.53331 143.198 7.01137ZM149.359 0.602437C149.359 0.602437 146.014 0.480375 144.088 0.608562C139.685 0.900812 137.734 2.13456 134.496 5.691C132.878 7.47162 129.859 10.9694 127.448 13.8114H132.256C133.647 12.0076 136.802 8.64587 136.802 8.64587C136.802 8.64587 140.047 8.14844 143.456 9.55675C146.868 10.9624 148.639 13.8591 148.639 13.8591L154.726 13.86L149.359 0.602437Z" fill="#2263BF"/>
<path d="M90.0007 0.690369C90.0007 0.690369 87.3063 5.62712 86.22 7.27693C85.1342 8.92718 83.7499 8.43806 83.1851 7.86493C82.7743 7.44799 79.1826 3.41818 78.377 2.56812C77.5706 1.72112 77.1254 0.911744 75.0493 0.826431C73.2125 0.750306 73.2293 0.822931 71.6462 0.793181L64.5902 13.6045L69.0366 13.5747C69.0366 13.5747 71.647 8.79199 72.5284 7.43006C73.1187 6.51918 74.1593 6.62243 75.0006 7.57181C76.0137 8.71587 77.3648 10.4234 78.5785 11.7547C80.0179 13.3354 81.2846 13.4216 82.8966 13.5096C85.3133 13.6421 87.0243 13.6141 87.0243 13.6141L94.1702 0.692119L90.0007 0.690369Z" fill="#2263BF"/>
<path d="M27.0815 2.46706C30.6965 2.46706 33.9459 3.33112 33.9459 3.33112L35.2802 1.11124C35.2802 1.11124 27.9551 -0.292693 20.094 0.273432C12.2342 0.84087 10.6085 2.17218 8.61972 4.44018L19.4155 8.18781C19.4155 8.18781 20.3489 8.65549 20.3489 9.13631C20.3489 9.61712 19.9963 9.98681 17.5219 10.332C15.0488 10.6772 13.6654 10.7752 10.9236 10.6514C8.18271 10.5284 4.0046 9.77549 1.56938 9.11224L0.273834 11.3426C0.273834 11.3426 5.58646 13.1425 12.2101 13.6841C18.8325 14.2266 25.0273 13.097 27.785 12.0811C30.2026 11.1917 31.1085 10.2576 31.7397 8.53125C29.2894 7.62037 19.9489 4.56312 19.9489 4.56312C19.9489 4.56312 18.8088 4.21793 19.0396 3.63868C19.2699 2.83806 23.467 2.46706 27.0815 2.46706Z" fill="#2263BF"/>
</g>
<defs>
<clipPath id="clip0_9_10">
<rect width="155" height="14" fill="white"/>
</clipPath>
</defs>
</svg>
