<svg width="258" height="57" viewBox="0 0 258 57" fill="none" xmlns="http://www.w3.org/2000/svg">
<path fill-rule="evenodd" clip-rule="evenodd" d="M74.5302 9.75574C91.4846 4.85734 95.7295 3.06706 107.543 1.73678C119.369 0.394074 159.962 -1.15999 187.411 1.28921C214.846 3.73841 242.282 7.53032 249.876 10.4271C257.457 13.3239 259.249 15.3255 257.233 18.446C255.229 21.5666 253.448 25.1347 239.158 29.8093C224.88 34.4839 188.008 41.9434 161.307 45.1759C131.854 48.744 75.2024 52.7473 64.7085 53.6424C54.2271 54.5376 15.8493 57.2105 8.94052 56.9867C2.01931 56.763 -0.20892 56.0916 0.0151477 53.6424C0.239216 51.1932 2.69152 48.2964 11.1688 42.2791C19.646 36.2618 36.949 25.8434 49.7582 19.7763C67.1608 11.5336 74.5177 9.75574 74.5177 9.75574" fill="#A9E3FF"/>
</svg>
